# Blender v2.77 (sub 0) OBJ File: ''
# www.blender.org
mtllib rosebranchbow.mtl
o roadkillout.001
v 16.843599 1.617393 41.502701
v 16.498501 2.341093 41.863602
v 16.175600 1.664093 42.201199
v 16.520800 0.940393 41.840302
v -1.725200 1.675099 5.535000
v -1.725200 1.675101 -5.948900
v -0.661400 0.611401 -5.948900
v -0.661400 0.611399 5.535000
v 0.333600 1.606401 -5.948900
v 0.333600 1.606399 5.535000
v -0.730100 2.670101 -5.948900
v -0.730100 2.670099 5.535000
v -2.236200 1.700401 -8.265400
v -0.509500 3.427101 -8.265399
v 1.336400 1.581101 -8.265400
v -0.390200 -0.145599 -8.265400
v -0.762600 -0.145601 7.623900
v -2.608500 1.700399 7.623900
v 0.964100 1.581099 7.623900
v -0.881800 3.426999 7.623900
v -1.321300 1.674202 -10.360400
v -0.358000 2.642202 -10.263800
v 0.671700 1.607302 -10.160600
v -0.291500 0.639302 -10.257200
v 0.176600 1.669203 -16.762300
v 0.958500 2.493703 -16.500799
v 1.794400 1.612303 -16.221201
v 1.012500 0.787803 -16.482700
v 3.445500 2.282004 -22.850700
v 3.362100 1.805504 -23.004101
v 4.084800 2.254503 -22.303301
v 4.205100 1.364204 -22.041100
v 3.506700 1.324904 -22.910299
v -0.845500 0.626898 9.752300
v -1.893200 1.674598 9.752300
v 0.134500 1.606898 9.752300
v -0.913200 2.654598 9.752300
v -0.529900 0.626896 22.004499
v -1.528000 1.674596 22.322800
v 0.403800 1.606896 21.706600
v -0.594400 2.654596 22.024900
v 0.828600 0.626896 26.133900
v -0.111900 1.674596 26.595600
v 1.708300 1.606896 25.702000
v 0.767800 2.654596 26.163700
v 3.154400 1.668895 32.218800
v 3.901700 0.798095 31.771900
v 4.600700 1.612595 31.353800
v 3.853400 2.483395 31.800800
v 6.348200 1.668894 35.945599
v 6.941800 0.798094 35.308498
v 7.496900 1.612594 34.712502
v 6.903400 2.483394 35.349602
v 12.008600 1.668894 38.809700
v 12.313800 0.798094 38.292301
v 12.599200 1.612594 37.808201
v 12.294100 2.483394 38.325600
v 4.164900 1.766004 -22.455400
v 3.711400 2.615103 -22.467199
v 3.927200 1.074604 -22.429501
v 13.960800 6.235405 -31.448097
v 13.534400 6.740805 -31.597498
v 18.926901 9.360606 -32.806400
v 19.087799 8.974806 -32.512798
v 14.049600 6.727505 -31.058098
v 19.007799 9.238504 -32.122501
v 18.846901 9.624206 -32.416000
v 13.623100 7.233005 -31.207499
v 9.803500 4.453005 -29.342699
v 9.446700 5.041605 -29.524700
v 9.969200 4.962005 -28.946301
v 9.612300 5.550605 -29.128300
v 6.181900 3.639004 -26.489500
v 6.542400 3.128904 -26.331200
v 6.727500 3.570004 -25.951799
v 6.367000 4.080104 -26.110001
v 20.940599 10.437406 -32.384399
v 15.601400 -1.254995 -28.976299
v 15.632200 -0.625695 -29.226500
v 21.082199 -2.359295 -29.983700
v 20.948400 -2.779895 -29.726700
v 15.869900 -0.859895 -28.559200
v 21.091600 -2.576395 -29.318899
v 21.225500 -2.155795 -29.575899
v 15.900700 -0.230495 -28.809401
v 11.025900 0.182904 -27.369301
v 11.072100 -0.473096 -27.096300
v 11.393300 -0.033996 -26.712099
v 11.347200 0.622004 -26.985201
v 7.278200 0.297604 -25.547800
v 7.195100 0.854604 -25.837299
v 7.546500 0.707204 -25.172899
v 7.463400 1.264204 -25.462299
v 23.035101 -3.851695 -29.664900
v 14.557500 2.452105 -31.843399
v 14.278700 3.018005 -32.091900
v 19.637199 3.459706 -34.682400
v 19.851101 2.963305 -34.296799
v 14.768600 2.962505 -31.531799
v 20.021799 3.373806 -33.863098
v 19.807899 3.870106 -34.248699
v 14.489800 3.528405 -31.780199
v 10.483800 2.021705 -29.108601
v 10.221200 2.619305 -29.393000
v 10.677300 2.554805 -28.759199
v 10.414700 3.152305 -29.043699
v 6.647800 2.214104 -26.279200
v 6.905900 1.696304 -25.999599
v 7.096100 2.158204 -25.656300
v 6.838000 2.676104 -25.935900
v 22.250401 1.983706 -35.485600
v 21.424900 3.692206 -36.973999
v 22.909500 3.396506 -33.811501
v 22.083799 5.105006 -35.299900
v 22.866800 3.744206 -38.311798
v 23.982800 1.434506 -36.299599
v 24.873699 3.344506 -34.036499
v 23.757601 5.654106 -36.048599
v 24.525801 3.678206 -38.292900
v 25.273100 2.131606 -36.945499
v 25.869699 3.410506 -35.430099
v 25.122299 4.957106 -36.777500
v 15.716700 3.115405 -32.594898
v 15.118600 3.046906 -34.124802
v 13.674700 2.884605 -33.444000
v 14.341900 2.922205 -31.903200
v 9.674300 4.785904 -26.896299
v 8.131200 4.626905 -29.903900
v 6.810700 4.172705 -29.113701
v 8.428200 4.314804 -26.101900
v 15.446200 7.272405 -29.992998
v 15.116100 7.398305 -31.598598
v 13.646100 6.868605 -31.234198
v 14.047400 6.722305 -29.609999
v 15.192700 2.937705 -30.737600
v 14.191900 2.676405 -32.015701
v 13.054700 2.358105 -30.929501
v 14.128600 2.599505 -29.660999
v 17.087200 1.510893 45.625401
v 17.079100 1.628293 41.669201
v 15.614100 1.846693 41.985298
v 15.854000 1.618892 45.913601
v 20.044901 2.212793 42.384998
v 16.456600 1.486993 40.881100
v 16.146000 1.638193 42.355701
v 19.820900 2.270993 43.634701
v 22.143299 9.991304 -31.744198
v 21.968300 10.960806 -33.060398
v 19.819099 10.249506 -32.813301
v 19.944500 9.568205 -32.081799
v 24.899401 -3.763795 -30.596001
v 24.669300 -4.960195 -29.492001
v 21.814501 -3.733795 -29.019300
v 22.210400 -2.831095 -30.132999
v 15.563500 -0.724195 -29.108900
v 14.929900 -0.417295 -30.594601
v 13.537000 -0.170695 -29.837400
v 14.225500 -0.530595 -28.348499
v 9.672500 0.219604 -24.479401
v 9.100100 0.450904 -26.003300
v 7.669400 0.694804 -25.319300
v 8.297700 0.412004 -23.787701
vt 0.1834 0.7758
vt 0.1844 0.7439
vt 0.2078 0.7626
vt 0.2067 0.7946
vt 0.3824 0.7586
vt 0.3455 0.4678
vt 0.3848 0.4614
vt 0.4257 0.7525
vt 0.4235 0.4555
vt 0.4642 0.7452
vt 0.6285 0.1353
vt 0.6147 0.4297
vt 0.5723 0.4281
vt 0.5876 0.1349
vt 0.5294 0.4245
vt 0.5529 0.1353
vt 0.5136 0.4824
vt 0.5695 0.4879
vt 0.6297 0.4953
vt 0.3825 0.4014
vt 0.4320 0.3897
vt 0.3245 0.4098
vt 0.4319 0.8070
vt 0.3724 0.8191
vt 0.4874 0.7964
vt 0.6425 0.0771
vt 0.5840 0.0808
vt 0.5305 0.0835
vt 0.5260 0.5384
vt 0.5626 0.5408
vt 0.6034 0.5460
vt 0.3814 0.3493
vt 0.4063 0.3434
vt 0.3413 0.3499
vt 0.5160 0.7045
vt 0.5483 0.7041
vt 0.5828 0.7039
vt 0.4229 0.1884
vt 0.4028 0.1899
vt 0.3693 0.1837
vt 0.5453 0.8790
vt 0.5323 0.8826
vt 0.5717 0.8708
vt 0.4742 0.0425
vt 0.4361 0.0176
vt 0.4403 0.8625
vt 0.3997 0.8716
vt 0.4808 0.8561
vt 0.6184 0.0226
vt 0.5789 0.0259
vt 0.5403 0.0270
vt 0.7723 0.3092
vt 0.7368 0.3081
vt 0.8115 0.0138
vt 0.8496 0.0234
vt 0.8045 0.3110
vt 0.8864 0.0353
vt 0.7558 0.6612
vt 0.8977 0.9110
vt 0.8658 0.9304
vt 0.7220 0.6721
vt 0.8336 0.9475
vt 0.6902 0.6816
vt 0.7680 0.4142
vt 0.7332 0.4173
vt 0.8002 0.4121
vt 0.7255 0.5653
vt 0.6913 0.5723
vt 0.6591 0.5784
vt 0.7553 0.5731
vt 0.7848 0.5683
vt 0.8125 0.5644
vt 0.6973 0.4154
vt 0.6668 0.4196
vt 0.6381 0.4232
vt 0.7878 0.6875
vt 0.8154 0.6768
vt 0.8412 0.6672
vt 0.6662 0.3068
vt 0.6965 0.3087
vt 0.6380 0.3048
vt 0.8704 0.8165
vt 0.8914 0.8040
vt 0.9113 0.7928
vt 0.7017 0.1626
vt 0.7260 0.1676
vt 0.6789 0.1572
vt 0.9474 0.9243
vt 0.9280 0.9327
vt 0.9659 0.9169
vt 0.7387 0.0324
vt 0.7177 0.0310
vt 0.6981 0.0290
vt 0.5840 0.8746
vt 0.5588 0.8718
vt 0.4243 0.0132
vt 0.4522 0.0291
vt 0.5146 0.0595
vt 0.0378 0.3522
vt 0.0539 0.3494
vt 0.0510 0.4651
vt 0.0361 0.4642
vt 0.0228 0.3561
vt 0.0219 0.4675
vt 0.0848 0.3560
vt 0.0808 0.4676
vt 0.0655 0.4666
vt 0.0696 0.3531
vt 0.0385 0.2373
vt 0.0549 0.2377
vt 0.0229 0.2390
vt 0.0868 0.2393
vt 0.0701 0.2397
vt 0.0562 0.1311
vt 0.0409 0.1301
vt 0.0262 0.1296
vt 0.0705 0.1310
vt 0.0856 0.1303
vt 0.0604 0.0197
vt 0.0367 0.0180
vt 0.0219 0.0180
vt 0.0750 0.0192
vt 0.0896 0.0191
vt 0.0513 0.5353
vt 0.1456 0.3515
vt 0.1614 0.3504
vt 0.1590 0.4625
vt 0.1445 0.4647
vt 0.1309 0.3528
vt 0.1296 0.4673
vt 0.1927 0.3532
vt 0.1887 0.4677
vt 0.1735 0.4633
vt 0.1772 0.3516
vt 0.1621 0.2341
vt 0.1451 0.2352
vt 0.1296 0.2367
vt 0.1948 0.2372
vt 0.1782 0.2361
vt 0.1479 0.1385
vt 0.1623 0.1381
vt 0.1334 0.1375
vt 0.1911 0.1379
vt 0.1764 0.1377
vt 0.1612 0.0293
vt 0.1445 0.0309
vt 0.1296 0.0287
vt 0.1822 0.0335
vt 0.1960 0.0292
vt 0.1583 0.5392
vt 0.2756 0.3801
vt 0.2548 0.3823
vt 0.2708 0.2092
vt 0.2963 0.2085
vt 0.2951 0.3785
vt 0.3260 0.2100
vt 0.4242 0.9301
vt 0.5847 0.9147
vt 0.5900 0.9379
vt 0.4243 0.9504
vt 0.5949 0.9658
vt 0.4240 0.9700
vt 0.2715 0.5254
vt 0.2517 0.5258
vt 0.2885 0.5251
vt 0.2847 0.9287
vt 0.2850 0.9488
vt 0.2849 0.9662
vt 0.2590 0.6650
vt 0.2777 0.6649
vt 0.2947 0.6649
vt 0.1505 0.9376
vt 0.1508 0.9186
vt 0.1504 0.9543
vt 0.2711 0.8000
vt 0.2862 0.7989
vt 0.3106 0.7909
vt 0.0289 0.8993
vt 0.0206 0.9254
vt 0.0193 0.9391
vt 0.3059 0.1265
vt 0.2470 0.1308
vt 0.3639 0.1269
vt 0.6655 0.9329
vt 0.6518 0.8775
vt 0.6806 0.9865
vt 0.2245 0.0761
vt 0.3094 0.0744
vt 0.3815 0.0523
vt 0.7099 0.9258
vt 0.6964 0.8428
vt 0.7531 0.9873
vt 0.2489 0.0295
vt 0.3078 0.0465
vt 0.3417 0.0175
vt 0.7467 0.8581
vt 0.7400 0.9202
vt 0.7775 0.9445
vt 0.7816 0.8845
vt 0.0846 0.7249
vt 0.0188 0.7288
vt 0.0194 0.6647
vt 0.0868 0.6632
vt 0.8663 0.3813
vt 0.8750 0.1506
vt 0.9840 0.1601
vt 0.9714 0.3932
vt 0.0205 0.8026
vt 0.0183 0.7366
vt 0.0827 0.7385
vt 0.0827 0.8060
vt 0.1609 0.7752
vt 0.1604 0.8402
vt 0.0971 0.8357
vt 0.0998 0.7693
vt 0.8782 0.6807
vt 0.8695 0.4108
vt 0.9713 0.4285
vt 0.9632 0.6972
vt 0.2384 0.5623
vt 0.2427 0.7407
vt 0.1756 0.7285
vt 0.1823 0.5509
vt 0.0872 0.6511
vt 0.0212 0.6508
vt 0.0372 0.5608
vt 0.0775 0.5607
vt 0.1035 0.5607
vt 0.1685 0.5619
vt 0.1593 0.6858
vt 0.1016 0.6747
vt 0.1002 0.7569
vt 0.1013 0.6919
vt 0.1646 0.6970
vt 0.1612 0.7633
vt 0.0183 0.8806
vt 0.0169 0.8146
vt 0.0812 0.8173
vt 0.0804 0.8847
vn 0.9823 0.0002 -0.1872
vn 0.4322 0.8209 0.3733
vn -0.0835 -0.0002 0.9965
vn 0.4318 -0.8208 0.3737
vn -0.9758 -0.0035 -0.2187
vn -0.9935 -0.0029 0.1140
vn -0.0325 -0.9857 0.1655
vn 0.0137 -0.9822 -0.1872
vn 0.9746 0.0032 0.2238
vn 0.9876 0.0033 -0.1565
vn -0.0265 0.9856 0.1669
vn 0.0206 0.9822 -0.1863
vn -0.9959 0.0042 -0.0901
vn 0.0073 0.9997 -0.0248
vn 0.9993 -0.0041 0.0359
vn 0.0155 -0.9996 -0.0242
vn -0.0016 -1.0000 0.0001
vn -0.9994 0.0042 -0.0330
vn 0.9994 -0.0042 0.0345
vn -0.0099 0.9999 -0.0004
vn -0.9438 -0.0034 -0.3304
vn -0.0146 0.9757 -0.2187
vn 0.9957 0.0038 -0.0928
vn -0.0219 -0.9753 -0.2196
vn -0.9462 -0.0047 -0.3234
vn -0.0496 0.9987 -0.0144
vn 0.9518 -0.0030 0.3065
vn -0.0451 -0.9984 -0.0328
vn -0.7359 0.5216 -0.4317
vn -0.8018 -0.0141 -0.5973
vn 0.8238 0.3107 0.4742
vn 0.8230 -0.2347 0.5173
vn -0.5842 -0.6297 -0.5119
vn -0.0165 -0.9817 0.1895
vn -0.9824 -0.0034 0.1869
vn 0.9819 0.0034 0.1892
vn -0.0096 0.9817 0.1899
vn -0.0658 -0.9978 0.0036
vn -0.9835 0.0000 0.1811
vn 0.9870 0.0000 -0.1606
vn -0.0658 0.9978 0.0036
vn -0.0318 -0.9991 0.0266
vn -0.9113 0.0002 0.4116
vn 0.9238 -0.0002 -0.3827
vn -0.0321 0.9991 0.0268
vn -0.8169 -0.0002 0.5767
vn -0.0309 -0.9987 0.0408
vn 0.8282 0.0002 -0.5604
vn -0.0305 0.9987 0.0406
vn -0.6244 0.0000 0.7811
vn -0.0411 -0.9962 0.0771
vn 0.6308 -0.0000 -0.7759
vn -0.0413 0.9961 0.0777
vn -0.5560 0.0002 0.8311
vn 0.0492 -0.9985 -0.0231
vn 0.5819 -0.0002 -0.8133
vn 0.0493 0.9985 -0.0235
vn 0.8744 0.1944 0.4444
vn -0.1016 0.9886 0.1104
vn -0.0499 -0.9987 0.0128
vn 0.3369 -0.8930 -0.2984
vn -0.3844 0.0909 -0.9186
vn -0.0907 0.1590 -0.9831
vn 0.5005 -0.8258 -0.2598
vn 0.3861 -0.1327 0.9128
vn 0.2570 -0.1329 0.9572
vn -0.3800 0.9144 0.1396
vn -0.3242 0.9273 0.1870
vn 0.1855 -0.9351 -0.3019
vn -0.5920 0.0610 -0.8036
vn 0.5916 -0.0872 0.8015
vn -0.2597 0.9461 0.1935
vn -0.7488 0.0029 -0.6627
vn 0.2143 -0.9537 -0.2109
vn 0.7421 0.0608 0.6675
vn -0.2033 0.9531 0.2242
vn 0.8670 0.4971 0.0340
vn -0.2772 -0.9285 -0.2471
vn -0.1964 0.2517 -0.9477
vn 0.1151 0.2359 -0.9649
vn -0.3722 -0.8863 -0.2756
vn 0.2075 -0.2261 0.9517
vn 0.0645 -0.2094 0.9757
vn 0.5238 0.8356 0.1656
vn 0.2916 0.9492 0.1182
vn -0.3357 0.2068 -0.9189
vn -0.2316 -0.9640 -0.1302
vn 0.3319 -0.2102 0.9196
vn 0.2275 0.9643 0.1354
vn -0.2118 -0.9740 -0.0803
vn -0.4861 0.1336 -0.8636
vn 0.4841 -0.1987 0.8521
vn 0.1821 0.9831 0.0193
vn 0.8171 -0.5764 -0.0076
vn 0.0356 -0.9930 -0.1124
vn -0.4990 0.0453 -0.8654
vn -0.6305 0.0430 -0.7750
vn -0.1917 -0.9811 0.0259
vn 0.4910 -0.0454 0.8699
vn 0.2026 -0.0628 0.9772
vn -0.2470 0.9513 0.1842
vn -0.0544 0.9975 0.0439
vn 0.0257 -0.9948 -0.0985
vn -0.6094 0.0314 -0.7923
vn 0.6088 -0.0320 0.7926
vn -0.0681 0.9963 0.0524
vn -0.6764 0.0190 -0.7362
vn -0.0236 -0.9889 -0.1466
vn 0.6779 -0.0319 0.7344
vn -0.1139 0.9935 0.0051
vn -0.3067 -0.9489 0.0745
vn -0.7240 0.0493 -0.6880
vn 0.0645 -0.0615 0.9960
vn -0.3043 0.9309 0.2018
vn -0.3676 0.0661 -0.9276
vn 0.0546 -0.9953 -0.0800
vn 0.4940 -0.0616 0.8672
vn 0.0724 0.9967 0.0367
vn 0.3807 0.0584 -0.9228
vn 0.6724 -0.6361 -0.3784
vn 0.9630 -0.0102 0.2694
vn 0.6625 0.6976 -0.2728
vn -0.1182 0.9929 0.0144
vn -0.2820 0.9541 0.1003
vn -0.3138 0.9375 0.1501
vn -0.2636 0.9643 0.0244
vn 0.1287 0.9909 0.0393
vn -0.1442 0.9840 -0.1039
vn -0.2079 0.7464 0.6322
vn -0.3602 -0.6246 -0.6929
vn 0.2218 0.9679 0.1184
vn 0.1949 0.9769 0.0877
usemtl material.001
s 1
f 1/1/1 2/2/2 3/3/3 4/4/4
f 5/5/5 6/6/6 7/7/7 8/8/8
f 8/8/8 7/7/7 9/9/9 10/10/10
f 10/11/10 9/12/9 11/13/11 12/14/12
f 12/14/12 11/13/11 6/15/6 5/16/5
f 13/17/13 6/15/6 11/13/11 14/18/14
f 14/18/14 11/13/11 9/12/9 15/19/15
f 16/20/16 15/21/15 9/9/9 7/7/7
f 13/22/13 16/20/16 7/7/7 6/6/6
f 17/23/17 18/24/18 5/5/5 8/8/8
f 19/25/19 17/23/17 8/8/8 10/10/10
f 19/26/19 10/11/10 12/14/12 20/27/20
f 20/27/20 12/14/12 5/16/5 18/28/18
f 21/29/21 13/17/13 14/18/14 22/30/22
f 22/30/22 14/18/14 15/19/15 23/31/23
f 24/32/24 23/33/23 15/21/15 16/20/16
f 21/34/21 24/32/24 16/20/16 13/22/13
f 25/35/25 21/29/21 22/30/22 26/36/26
f 26/36/26 22/30/22 23/31/23 27/37/27
f 27/38/27 23/33/23 24/32/24 28/39/28
f 28/39/28 24/32/24 21/34/21 25/40/25
f 25/35/25 29/41/29 30/42/30
f 26/36/26 27/37/27 31/43/31
f 28/39/28 32/44/32 27/38/27
f 28/39/28 25/40/25 33/45/33
f 34/46/34 35/47/35 18/24/18 17/23/17
f 36/48/36 34/46/34 17/23/17 19/25/19
f 36/49/36 19/26/19 20/27/20 37/50/37
f 37/50/37 20/27/20 18/28/18 35/51/35
f 38/52/38 39/53/39 35/54/35 34/55/34
f 40/56/40 38/52/38 34/55/34 36/57/36
f 40/58/40 36/59/36 37/60/37 41/61/41
f 41/61/41 37/60/37 35/62/35 39/63/39
f 42/64/42 43/65/43 39/53/39 38/52/38
f 44/66/44 42/64/42 38/52/38 40/56/40
f 44/67/44 40/58/40 41/61/41 45/68/45
f 45/68/45 41/61/41 39/63/39 43/69/43
f 46/70/46 43/65/43 42/64/42 47/71/47
f 47/71/47 42/64/42 44/66/44 48/72/48
f 48/73/48 44/67/44 45/68/45 49/74/49
f 49/74/49 45/68/45 43/69/43 46/75/46
f 50/76/50 46/70/46 47/71/47 51/77/51
f 51/77/51 47/71/47 48/72/48 52/78/52
f 53/79/53 52/80/52 48/73/48 49/74/49
f 50/81/50 53/79/53 49/74/49 46/75/46
f 54/82/54 50/76/50 51/77/51 55/83/55
f 55/83/55 51/77/51 52/78/52 56/84/56
f 57/85/57 56/86/56 52/80/52 53/79/53
f 54/87/54 57/85/57 53/79/53 50/81/50
f 4/88/4 3/89/3 54/82/54 55/83/55
f 1/90/1 4/88/4 55/83/55 56/84/56
f 1/91/1 56/86/56 57/85/57 2/92/2
f 2/92/2 57/85/57 54/87/54 3/93/3
f 25/35/25 26/36/26 29/41/29
f 27/37/27 58/94/58 31/43/31
f 31/43/31 59/95/59 26/36/26
f 26/36/26 59/95/59 29/41/29
f 25/40/25 30/96/30 33/45/33
f 33/45/33 60/97/60 28/39/28
f 28/39/28 60/97/60 32/44/32
f 32/44/32 58/98/58 27/38/27
f 61/99/61 62/100/62 63/101/63 64/102/64
f 65/103/65 61/99/61 64/102/64 66/104/66
f 65/105/65 66/106/66 67/107/67 68/108/68
f 68/108/68 67/107/67 63/101/63 62/100/62
f 69/109/69 70/110/70 62/100/62 61/99/61
f 71/111/71 69/109/69 61/99/61 65/103/65
f 71/112/71 65/105/65 68/108/68 72/113/72
f 72/113/72 68/108/68 62/100/62 70/110/70
f 73/114/73 70/110/70 69/109/69 74/115/74
f 74/115/74 69/109/69 71/111/71 75/116/75
f 76/117/76 75/118/75 71/112/71 72/113/72
f 76/117/76 72/113/72 70/110/70 73/114/73
f 29/119/29 73/114/73 74/115/74 58/120/58
f 58/120/58 74/115/74 75/116/75 31/121/31
f 59/122/59 31/123/31 75/118/75 76/117/76
f 29/119/29 59/122/59 76/117/76 73/114/73
f 64/102/64 63/101/63 77/124/77
f 66/104/66 64/102/64 77/124/77
f 67/107/67 66/106/66 77/124/77
f 63/101/63 67/107/67 77/124/77
f 78/125/78 79/126/79 80/127/80 81/128/81
f 82/129/82 78/125/78 81/128/81 83/130/83
f 82/131/82 83/132/83 84/133/84 85/134/85
f 85/134/85 84/133/84 80/127/80 79/126/79
f 86/135/86 79/126/79 78/125/78 87/136/87
f 88/137/88 87/136/87 78/125/78 82/129/82
f 88/138/88 82/131/82 85/134/85 89/139/89
f 89/139/89 85/134/85 79/126/79 86/135/86
f 90/140/90 91/141/91 86/135/86 87/136/87
f 92/142/92 90/140/90 87/136/87 88/137/88
f 92/143/92 88/138/88 89/139/89 93/144/93
f 93/144/93 89/139/89 86/135/86 91/141/91
f 33/145/33 91/141/91 90/140/90 60/146/60
f 60/146/60 90/140/90 92/142/92 32/147/32
f 58/148/58 32/149/32 92/143/92 93/144/93
f 58/148/58 93/144/93 91/141/91 33/145/33
f 81/128/81 80/127/80 94/150/94
f 83/130/83 81/128/81 94/150/94
f 84/133/84 83/132/83 94/150/94
f 80/127/80 84/133/84 94/150/94
f 95/151/95 96/152/96 97/153/97 98/154/98
f 99/155/99 95/151/95 98/154/98 100/156/100
f 99/157/99 100/158/100 101/159/101 102/160/102
f 102/160/102 101/159/101 97/161/97 96/162/96
f 103/163/103 104/164/104 96/152/96 95/151/95
f 105/165/105 103/163/103 95/151/95 99/155/99
f 105/166/105 99/157/99 102/160/102 106/167/106
f 106/167/106 102/160/102 96/162/96 104/168/104
f 107/169/107 104/164/104 103/163/103 108/170/108
f 108/170/108 103/163/103 105/165/105 109/171/109
f 110/172/110 109/173/109 105/166/105 106/167/106
f 107/174/107 110/172/110 106/167/106 104/168/104
f 30/175/30 107/169/107 108/170/108 33/176/33
f 58/177/58 33/176/33 108/170/108 109/171/109
f 58/178/58 109/173/109 110/172/110 29/179/29
f 30/180/30 29/179/29 110/172/110 107/174/107
f 111/181/111 98/154/98 97/153/97 112/182/112
f 111/181/111 113/183/113 100/156/100 98/154/98
f 114/184/114 101/159/101 100/158/100 113/185/113
f 114/184/114 112/186/112 97/161/97 101/159/101
f 115/187/115 116/188/116 111/181/111 112/182/112
f 117/189/117 113/183/113 111/181/111 116/188/116
f 118/190/118 114/184/114 113/185/113 117/191/117
f 118/190/118 115/192/115 112/186/112 114/184/114
f 119/193/119 120/194/120 116/188/116 115/187/115
f 121/195/121 117/189/117 116/188/116 120/194/120
f 121/196/121 122/197/122 118/190/118 117/191/117
f 122/197/122 119/198/119 115/192/115 118/190/118
f 122/197/122 121/196/121 120/199/120 119/198/119
f 123/200/123 124/201/123 125/202/123 126/203/123
f 127/204/124 128/205/124 129/206/124 130/207/124
f 131/208/125 132/209/125 133/210/125 134/211/125
f 135/212/126 136/213/126 137/214/126 138/215/126
f 139/216/127 140/217/127 141/218/127 142/219/127
f 143/220/128 144/221/128 145/222/128 146/223/128
f 147/224/129 148/225/129 149/226/129 150/227/129
f 151/228/130 152/229/130 153/230/130 154/231/130
f 155/232/131 156/233/131 157/234/131 158/235/131
f 159/236/132 160/237/132 161/238/132 162/239/132
